<svg width="147" height="45" viewBox="0 0 147 45" fill="#3AF277" xmlns="http://www.w3.org/2000/svg">
<path opacity="1" fill-rule="evenodd" clip-rule="evenodd" d="M25.8497 0.866151C29.6072 0.613911 32.7158 1.86658 35.1756 4.62423C37.4934 7.67618 38.0099 11.0042 36.7251 14.6084C35.0631 17.399 33.4084 20.1942 31.7609 22.9939C38.8675 27.0557 45.9647 31.1316 53.0525 35.2217C45.8288 38.116 38.6168 41.0421 31.4165 43.9999C21.2683 38.2087 11.1294 32.4033 1 26.5837C7.25083 23.9916 13.5159 21.4395 19.7951 18.9274C19.0015 17.4705 18.1598 16.0308 17.27 14.6084C15.938 10.8267 16.5502 7.38647 19.1065 4.28768C20.9395 2.3682 23.1873 1.22771 25.8497 0.866151ZM26.2515 4.7925C28.1985 4.62698 29.9011 5.15984 31.3592 6.39109C33.0564 8.01906 33.6781 9.9916 33.2243 12.3087C32.7184 14.3173 31.5036 15.7476 29.5801 16.5996C26.4857 17.675 23.9031 16.9926 21.8325 14.5523C20.5215 12.5825 20.3206 10.5072 21.2299 8.32622C22.2914 6.31648 23.9652 5.13858 26.2515 4.7925ZM19.7664 19.0956C19.8513 19.0809 19.9278 19.0996 19.996 19.1517C20.7584 20.3705 21.4758 21.6045 22.1481 22.8537C20.5746 21.9398 18.9964 21.0331 17.4135 20.1333C18.2012 19.7855 18.9855 19.4397 19.7664 19.0956ZM17.1839 20.1614C18.8972 21.1526 20.6188 22.1342 22.349 23.1061C22.4255 23.2183 22.502 23.3305 22.5785 23.4427C19.1668 24.8201 15.7617 26.213 12.3632 27.6214C10.479 26.5605 8.60425 25.4854 6.73897 24.3962C10.244 23.0289 13.7257 21.6173 17.1839 20.1614ZM31.7035 23.1342C33.6612 24.2339 35.6125 25.3464 37.5572 26.4716C35.1744 27.477 32.7831 28.4679 30.3835 29.4444C30.307 29.4818 30.2305 29.4818 30.154 29.4444C29.8053 29.3082 29.4705 29.1493 29.1497 28.9676C29.1305 28.9863 29.1114 29.005 29.0923 29.0237C28.962 28.9245 28.8282 28.8871 28.6905 28.9115C28.6416 28.8204 28.5842 28.8017 28.5184 28.8554C28.4753 28.8203 28.4275 28.7923 28.3749 28.7713C29.4779 26.8861 30.5874 25.0071 31.7035 23.1342ZM22.5785 23.5829C23.627 25.2108 24.6409 26.8655 25.6202 28.5469C25.5283 28.5622 25.4422 28.5903 25.3619 28.6311C25.223 28.5756 25.0892 28.5943 24.9602 28.6871C24.9364 28.6615 24.9077 28.6428 24.8741 28.6311C24.7122 28.6751 24.5496 28.7312 24.3863 28.7993C24.3672 28.7806 24.348 28.7619 24.3289 28.7432C23.7658 28.9359 23.2397 29.1977 22.7507 29.5285C22.2926 29.9922 22.1682 30.5344 22.3777 31.1551C22.6767 31.5783 23.0498 31.9243 23.4968 32.1928C21.0815 33.1853 18.6616 34.1669 16.237 35.1376C11.2501 32.322 6.28588 29.4707 1.34434 26.5837C3.07888 25.8903 4.81016 25.1892 6.53811 24.4803C8.47025 25.5835 10.4023 26.6866 12.3345 27.7897C13.2455 27.4212 14.1541 27.0473 15.0605 26.6679C15.2911 26.6815 15.5493 26.7189 15.8352 26.7801C16.2923 26.7697 16.7515 26.7697 17.2126 26.7801C18.0165 26.6864 18.7816 26.462 19.5082 26.107C19.9185 25.8931 20.2054 25.5753 20.369 25.1534C20.379 24.9268 20.4076 24.7024 20.4551 24.4803C21.1747 24.1938 21.8826 23.8946 22.5785 23.5829ZM19.996 24.6486C20.0611 24.7869 20.0707 24.9365 20.0247 25.0973C19.9117 25.2832 19.797 25.4701 19.6804 25.6582C19.4294 25.8748 19.152 26.0524 18.8482 26.1911C18.4265 26.3796 18.0152 26.5011 17.6143 26.5557C17.5416 26.5492 17.465 26.5305 17.3848 26.4996C17.2317 26.537 17.0787 26.5744 16.9256 26.6118C16.5659 26.5671 16.2025 26.5671 15.8352 26.6118C15.7165 26.5689 15.5921 26.5409 15.4622 26.5277C16.9786 25.8984 18.4899 25.2721 19.996 24.6486ZM37.7868 26.6118C42.7684 29.4483 47.7422 32.2996 52.7081 35.1656C51.1797 35.8008 49.6493 36.4365 48.117 37.0727C47.8736 37.1833 47.625 37.2581 47.3709 37.2971C45.4673 36.1892 43.5544 35.0954 41.6319 34.0158C40.7543 34.3858 39.8743 34.7504 38.992 35.1095C38.7135 35.0798 38.4743 35.0891 38.2746 35.1376C38.1407 35.1002 38.0068 35.0628 37.8729 35.0254C37.6506 35.0757 37.421 35.0757 37.1842 35.0254C37.0885 35.0628 36.9929 35.1002 36.8973 35.1376C36.7634 35.1189 36.6294 35.1002 36.4955 35.0815C36.4196 35.1589 36.3431 35.1776 36.266 35.1376C35.6695 35.2643 35.0669 35.4794 34.4582 35.7826C33.877 36.1266 33.5901 36.6314 33.5974 37.2971C32.6936 37.6601 31.7945 38.034 30.9 38.4189C32.7845 39.5175 34.6783 40.6019 36.5816 41.6721C34.8683 42.4064 33.1466 43.1263 31.4165 43.8316C26.4333 40.9945 21.4595 38.1433 16.4952 35.2778C18.8993 34.2806 21.3096 33.299 23.7263 32.333C24.0174 32.4803 24.2948 32.6111 24.5585 32.7257C24.5776 32.707 24.5968 32.6883 24.6159 32.6696C24.6997 32.7774 24.7953 32.8148 24.9028 32.7818C25.033 32.881 25.1669 32.9183 25.3045 32.8939C25.3535 32.9851 25.4109 33.0038 25.4767 32.95C25.9105 33.0722 26.3505 33.1657 26.7967 33.2305C26.8541 33.2118 26.9115 33.1931 26.9688 33.1744C28.3081 33.3987 29.6185 33.1837 30.9 32.5294C31.6372 32.0883 31.8764 31.4619 31.6174 30.6503C31.3184 30.2271 30.9453 29.8812 30.4983 29.6126C32.9406 28.6274 35.3701 27.6271 37.7868 26.6118ZM25.3906 28.7432C25.5095 28.7431 25.6338 28.7618 25.7637 28.7993C26.1635 29.4594 26.5556 30.1231 26.9401 30.7905C25.8872 31.1961 24.8255 31.6355 23.755 32.1087C23.2717 31.8421 22.9082 31.4681 22.6646 30.9869C22.5529 30.2724 22.8111 29.7209 23.4394 29.3322C23.7743 29.166 24.1186 29.0258 24.4724 28.9115C24.506 28.9232 24.5347 28.942 24.5585 28.9676C24.8322 28.8602 25.1096 28.7855 25.3906 28.7432ZM28.2601 28.9676C28.5911 29.0134 28.9068 29.1069 29.207 29.2481C29.2262 29.2294 29.2453 29.2106 29.2644 29.192C29.4907 29.2919 29.7298 29.4134 29.9818 29.5566C29.1032 29.9625 28.2137 30.3457 27.3132 30.7064C27.5955 30.1176 27.9111 29.5379 28.2601 28.9676ZM30.2114 29.6968C30.7094 29.9499 31.0825 30.3239 31.3305 30.8186C31.3687 31.0804 31.3687 31.3421 31.3305 31.6039C31.0338 32.1579 30.5938 32.5131 30.0105 32.6696C29.8514 32.7496 29.6887 32.8244 29.5227 32.8939C29.4891 32.8822 29.4604 32.8635 29.4366 32.8379C29.1595 32.9481 28.8725 33.0229 28.5758 33.0622C28.503 33.0557 28.4264 33.037 28.3462 33.0061C28.0318 33.0924 27.7449 33.1298 27.4854 33.1183C26.8523 33.0667 26.1924 32.9639 25.5054 32.8098C25.2539 32.7555 25.0148 32.6714 24.788 32.5574C24.7689 32.5761 24.7498 32.5948 24.7306 32.6135C24.5044 32.5136 24.2653 32.392 24.0133 32.2489C26.085 31.3545 28.1511 30.5038 30.2114 29.6968ZM41.5745 34.184C43.4887 35.2224 45.3826 36.2975 47.2561 37.4092C47.0792 37.4731 46.907 37.5479 46.7396 37.6336C43.4146 38.9113 40.0956 40.2481 36.7825 41.6441C34.9411 40.5807 33.0951 39.5243 31.2444 38.475C34.6893 37.0383 38.1326 35.608 41.5745 34.184ZM38.4181 35.3058C36.9674 35.947 35.4944 36.5453 33.9991 37.1007C33.9897 36.9685 33.9993 36.8377 34.0278 36.7081C34.3231 36.1556 34.7631 35.8004 35.3477 35.6424C35.5129 35.5757 35.6756 35.5009 35.8356 35.418C35.931 35.4586 36.0267 35.4399 36.1225 35.3619C36.1561 35.3737 36.1848 35.3924 36.2086 35.418C36.3919 35.3363 36.5832 35.2802 36.7825 35.2498C36.8627 35.2807 36.9393 35.2993 37.012 35.3058C37.3123 35.1996 37.5993 35.1621 37.8729 35.1937C38.0681 35.2482 38.2499 35.2855 38.4181 35.3058Z" fill="#008C4F" stroke="#008C4F" stroke-width="0.423191"/>
<path d="M53.8312 25.2318L52.9171 24.1146C52.5108 24.329 52.0763 24.4926 51.6136 24.6055C51.1622 24.7296 50.6883 24.7917 50.1917 24.7917C49.3566 24.7917 48.5723 24.6394 47.8388 24.3347C47.1165 24.0187 46.4789 23.5842 45.9259 23.0312C45.3843 22.467 44.9611 21.8181 44.6564 21.0846C44.3517 20.3397 44.1993 19.5385 44.1993 18.6808C44.1993 17.8232 44.3517 17.0276 44.6564 16.294C44.9611 15.5492 45.3843 14.9003 45.9259 14.3474C46.4789 13.7831 47.1165 13.3486 47.8388 13.0439C48.5723 12.7279 49.3566 12.57 50.1917 12.57C51.0268 12.57 51.8055 12.7279 52.5277 13.0439C53.2613 13.3486 53.8989 13.7831 54.4405 14.3474C54.9935 14.9003 55.4224 15.5492 55.727 16.294C56.0317 17.0276 56.1841 17.8232 56.1841 18.6808C56.1841 19.5498 56.0205 20.3679 55.6932 21.1353C55.3772 21.8914 54.9314 22.546 54.3559 23.0989L55.6763 24.7071L53.8312 25.2318ZM50.1917 22.9635C50.4626 22.9635 50.7221 22.9353 50.9704 22.8789C51.2299 22.8112 51.4726 22.7152 51.6983 22.5911L50.2086 20.7799L52.0538 20.2551L53.1202 21.5416C53.4249 21.1692 53.6619 20.7404 53.8312 20.2551C54.0117 19.7698 54.102 19.2451 54.102 18.6808C54.102 18.0714 54.0004 17.5072 53.7973 16.9881C53.6055 16.4689 53.329 16.0175 52.9678 15.6339C52.618 15.2389 52.2061 14.9342 51.7321 14.7198C51.2582 14.5053 50.7447 14.3981 50.1917 14.3981C49.6387 14.3981 49.1253 14.5053 48.6513 14.7198C48.1773 14.9342 47.7598 15.2389 47.3987 15.6339C47.0488 16.0175 46.7723 16.4689 46.5692 16.9881C46.3661 17.5072 46.2645 18.0714 46.2645 18.6808C46.2645 19.2902 46.3661 19.8545 46.5692 20.3736C46.7723 20.8927 47.0488 21.3498 47.3987 21.7447C47.7598 22.1284 48.1773 22.4275 48.6513 22.6419C49.1253 22.8563 49.6387 22.9635 50.1917 22.9635ZM61.1358 24.7409C60.549 24.7409 60.0355 24.6111 59.5954 24.3516C59.1553 24.092 58.8055 23.7365 58.5459 23.2851C58.2976 22.8337 58.1735 22.309 58.1735 21.7109V16.1248H60.1032V21.1523C60.1032 21.7729 60.2669 22.2695 60.5941 22.6419C60.9327 23.0143 61.3897 23.2005 61.9653 23.2005C62.349 23.2005 62.6932 23.1159 62.9979 22.9466C63.3138 22.7773 63.5847 22.5234 63.8104 22.1848V16.1248H65.7232V24.6055H63.8104V23.2344C63.4831 23.7309 63.0938 24.109 62.6424 24.3685C62.191 24.6168 61.6888 24.7409 61.1358 24.7409ZM70.6666 24.7578C70.0798 24.7578 69.555 24.6506 69.0923 24.4362C68.6409 24.2105 68.2855 23.9058 68.0259 23.5221C67.7776 23.1272 67.6535 22.6757 67.6535 22.1679C67.6535 21.6601 67.7833 21.22 68.0428 20.8476C68.3137 20.4752 68.6917 20.1874 69.177 19.9843C69.6622 19.7811 70.2378 19.6796 70.9036 19.6796C71.2986 19.6796 71.6879 19.7247 72.0716 19.815C72.4553 19.894 72.8277 20.0294 73.1888 20.2212V19.2733C73.1888 18.709 73.0252 18.2858 72.6979 18.0037C72.3819 17.7216 71.8967 17.5805 71.2421 17.5805C70.8923 17.5805 70.5143 17.637 70.108 17.7498C69.713 17.8514 69.2673 18.015 68.7707 18.2407L68.0936 16.8526C69.335 16.2771 70.5086 15.9893 71.6146 15.9893C72.7205 15.9893 73.5725 16.2602 74.1706 16.8019C74.78 17.3323 75.0847 18.0884 75.0847 19.0702V24.6055H73.1888V23.7253C72.8277 24.0751 72.4384 24.3347 72.0208 24.5039C71.6033 24.6732 71.1519 24.7578 70.6666 24.7578ZM69.4478 22.1341C69.4478 22.529 69.6058 22.8394 69.9218 23.0651C70.2378 23.2908 70.661 23.4036 71.1914 23.4036C71.5751 23.4036 71.9305 23.3472 72.2578 23.2344C72.5964 23.1102 72.9067 22.9297 73.1888 22.6927V21.3215C72.8954 21.1861 72.5907 21.0846 72.2747 21.0168C71.9588 20.9491 71.6146 20.9153 71.2421 20.9153C70.6892 20.9153 70.2491 21.0225 69.9218 21.2369C69.6058 21.4513 69.4478 21.7504 69.4478 22.1341ZM80.8368 24.6901C80.1259 24.6901 79.4826 24.4983 78.9071 24.1146C78.3315 23.7196 77.8688 23.2005 77.519 22.5573C77.1804 21.9027 77.0112 21.1748 77.0112 20.3736C77.0112 19.5611 77.1861 18.8332 77.5359 18.1899C77.8858 17.5354 78.3597 17.0163 78.9578 16.6326C79.5672 16.2489 80.2387 16.057 80.9722 16.057C81.4575 16.057 81.9089 16.153 82.3264 16.3448C82.7553 16.5254 83.1277 16.7962 83.4437 17.1573V12.4684L85.3565 12.1298V24.6055H83.4606V23.4883C83.1559 23.872 82.7778 24.171 82.3264 24.3854C81.875 24.5886 81.3785 24.6901 80.8368 24.6901ZM81.4293 23.0651C81.8355 23.0651 82.2136 22.9861 82.5634 22.8281C82.9133 22.6701 83.2067 22.4444 83.4437 22.151V18.5793C83.1954 18.2858 82.8963 18.0601 82.5465 17.9022C82.1967 17.7442 81.8243 17.6652 81.4293 17.6652C80.944 17.6652 80.5095 17.7837 80.1259 18.0206C79.7534 18.2464 79.4544 18.5623 79.2287 18.9686C79.0143 19.3749 78.9071 19.8432 78.9071 20.3736C78.9071 20.8814 79.0143 21.3441 79.2287 21.7617C79.4544 22.1679 79.7534 22.4895 80.1259 22.7265C80.5095 22.9522 80.944 23.0651 81.4293 23.0651ZM87.7323 24.6055V16.1248H89.6451V17.9529C89.8934 17.3097 90.215 16.8188 90.61 16.4802C91.005 16.1417 91.462 15.9724 91.9811 15.9724C92.1504 15.9837 92.2971 16.0006 92.4213 16.0232C92.5454 16.0345 92.6752 16.074 92.8106 16.1417V17.8175C92.6639 17.7498 92.4946 17.699 92.3028 17.6652C92.1222 17.6313 91.9416 17.6144 91.7611 17.6144C91.2984 17.6144 90.8808 17.7385 90.5084 17.9868C90.1473 18.2351 89.8595 18.5793 89.6451 19.0194V24.6055H87.7323ZM96.6862 24.7578C96.0994 24.7578 95.5747 24.6506 95.112 24.4362C94.6606 24.2105 94.3051 23.9058 94.0455 23.5221C93.7973 23.1272 93.6731 22.6757 93.6731 22.1679C93.6731 21.6601 93.8029 21.22 94.0625 20.8476C94.3333 20.4752 94.7113 20.1874 95.1966 19.9843C95.6819 19.7811 96.2574 19.6796 96.9232 19.6796C97.3182 19.6796 97.7075 19.7247 98.0912 19.815C98.4749 19.894 98.8473 20.0294 99.2085 20.2212V19.2733C99.2085 18.709 99.0448 18.2858 98.7175 18.0037C98.4016 17.7216 97.9163 17.5805 97.2618 17.5805C96.9119 17.5805 96.5339 17.637 96.1276 17.7498C95.7326 17.8514 95.2869 18.015 94.7903 18.2407L94.1132 16.8526C95.3546 16.2771 96.5282 15.9893 97.6342 15.9893C98.7401 15.9893 99.5921 16.2602 100.19 16.8019C100.8 17.3323 101.104 18.0884 101.104 19.0702V24.6055H99.2085V23.7253C98.8473 24.0751 98.458 24.3347 98.0404 24.5039C97.6229 24.6732 97.1715 24.7578 96.6862 24.7578ZM95.4674 22.1341C95.4674 22.529 95.6254 22.8394 95.9414 23.0651C96.2574 23.2908 96.6806 23.4036 97.211 23.4036C97.5947 23.4036 97.9502 23.3472 98.2774 23.2344C98.616 23.1102 98.9263 22.9297 99.2085 22.6927V21.3215C98.915 21.1861 98.6103 21.0846 98.2944 21.0168C97.9784 20.9491 97.6342 20.9153 97.2618 20.9153C96.7088 20.9153 96.2687 21.0225 95.9414 21.2369C95.6254 21.4513 95.4674 21.7504 95.4674 22.1341ZM107.459 24.6055V12.7562H109.491V22.845H115.805V24.6055H107.459ZM117.802 24.6055V16.1248H119.714V24.6055H117.802ZM118.766 14.3981C118.439 14.3981 118.157 14.2853 117.92 14.0596C117.694 13.8226 117.582 13.5461 117.582 13.2301C117.582 12.9029 117.694 12.6264 117.92 12.4007C118.157 12.1637 118.439 12.0452 118.766 12.0452C119.094 12.0452 119.37 12.1637 119.596 12.4007C119.833 12.6264 119.951 12.8972 119.951 13.2132C119.951 13.5405 119.833 13.8226 119.596 14.0596C119.37 14.2853 119.094 14.3981 118.766 14.3981ZM124.538 24.6055L121.085 16.1248H123.167L125.537 22.2864L127.89 16.1248H129.887L126.4 24.6055H124.538ZM131.258 24.6055V16.1248H133.171V17.9529C133.419 17.3097 133.741 16.8188 134.136 16.4802C134.531 16.1417 134.988 15.9724 135.507 15.9724C135.676 15.9837 135.823 16.0006 135.947 16.0232C136.071 16.0345 136.201 16.074 136.336 16.1417V17.8175C136.19 17.7498 136.02 17.699 135.829 17.6652C135.648 17.6313 135.467 17.6144 135.287 17.6144C134.824 17.6144 134.407 17.7385 134.034 17.9868C133.673 18.2351 133.385 18.5793 133.171 19.0194V24.6055H131.258ZM141.451 24.7748C140.638 24.7748 139.905 24.5829 139.25 24.1992C138.596 23.8043 138.077 23.2795 137.693 22.625C137.309 21.9591 137.117 21.2087 137.117 20.3736C137.117 19.5385 137.298 18.7937 137.659 18.1391C138.02 17.4846 138.511 16.9655 139.132 16.5818C139.764 16.1868 140.464 15.9893 141.231 15.9893C142.021 15.9893 142.715 16.1812 143.313 16.5649C143.922 16.9486 144.396 17.4677 144.735 18.1222C145.085 18.7768 145.26 19.5272 145.26 20.3736V20.8306H138.996C139.064 21.2933 139.211 21.7052 139.437 22.0664C139.674 22.4162 139.973 22.6927 140.334 22.8958C140.706 23.0989 141.107 23.2005 141.536 23.2005C141.931 23.2005 142.303 23.1328 142.653 22.9974C143.014 22.8507 143.313 22.6532 143.55 22.4049L144.803 23.5391C144.284 23.9679 143.753 24.2839 143.211 24.487C142.681 24.6789 142.094 24.7748 141.451 24.7748ZM139.013 19.6457H143.448C143.381 19.2394 143.24 18.8783 143.025 18.5623C142.822 18.2464 142.563 17.9981 142.247 17.8175C141.942 17.637 141.603 17.5467 141.231 17.5467C140.858 17.5467 140.514 17.637 140.198 17.8175C139.894 17.9868 139.64 18.2294 139.437 18.5454C139.233 18.8614 139.092 19.2282 139.013 19.6457Z" fill="#008C4F"/>
</svg>
