<svg width="40" height="51" viewBox="0 0 40 51" fill="none" xmlns="http://www.w3.org/2000/svg">
<path fill-rule="evenodd" clip-rule="evenodd" d="M19.7977 50.1255C20.8379 50.13 39.508 30.6291 39.5537 19.9417C39.5994 9.25416 30.8491 0.552699 20.0097 0.506392C9.1702 0.460085 0.346059 9.08647 0.300402 19.774C0.254745 30.4615 18.7575 50.1211 19.7977 50.1255ZM19.8857 29.5368C25.3813 29.5603 29.8552 25.1866 29.8784 19.768C29.9015 14.3494 25.4652 9.93778 19.9695 9.9143C14.4739 9.89083 10.0001 14.2644 9.97693 19.683C9.95378 25.1016 14.3901 29.5133 19.8857 29.5368Z" fill="#008C4F"/>
<path fill-rule="evenodd" clip-rule="evenodd" d="M0.300402 19.774C0.254745 30.4615 18.7575 50.1211 19.7977 50.1255L19.8857 29.5368C14.3901 29.513 9.95378 25.1015 9.97693 19.683C10.0001 14.2644 14.4739 9.89085 19.9695 9.9143L20.0097 0.506392C9.1702 0.460085 0.346059 9.08647 0.300402 19.774Z" fill="#00CC73"/>
</svg>
