<svg xmlns="http://www.w3.org/2000/svg" xmlns:xlink="http://www.w3.org/1999/xlink" version="1.1" width="256" height="256" viewBox="0 0 256 256" xml:space="preserve">

<defs>
</defs>
<g style="stroke: none; stroke-width: 0; stroke-dasharray: none; stroke-linecap: butt; stroke-linejoin: miter; stroke-miterlimit: 10; fill: none; fill-rule: nonzero; opacity: 1;" transform="translate(1.4065934065934016 1.4065934065934016) scale(2.81 2.81)" >
	<circle cx="45" cy="45" r="45" style="stroke: none; stroke-width: 1; stroke-dasharray: none; stroke-linecap: butt; stroke-linejoin: miter; stroke-miterlimit: 10; fill: rgb(9,123,216); fill-rule: nonzero; opacity: 1;" transform="  matrix(1 0 0 1 0 0) "/>
	<path d="M 45 15 c -13.025 0 -23.583 10.559 -23.583 23.583 c 0 5.815 2.114 11.129 5.603 15.241 L 45 75 l 17.98 -21.177 c 3.489 -4.111 5.603 -9.426 5.603 -15.241 C 68.584 25.559 58.025 15 45 15 z M 45 47.47 c -5.357 0 -9.699 -4.342 -9.699 -9.699 c 0 -5.357 4.342 -9.699 9.699 -9.699 c 5.357 0 9.699 4.342 9.699 9.699 C 54.699 43.128 50.357 47.47 45 47.47 z" style="stroke: none; stroke-width: 1; stroke-dasharray: none; stroke-linecap: butt; stroke-linejoin: miter; stroke-miterlimit: 10; fill: rgb(255,255,255); fill-rule: nonzero; opacity: 1;" transform=" matrix(1 0 0 1 0 0) " stroke-linecap="round" />
</g>
</svg>